<svg t="1629254800874" class="icon" viewBox="0 0 1024 1024" version="1.1" xmlns="http://www.w3.org/2000/svg" p-id="51189" xmlns:xlink="http://www.w3.org/1999/xlink" width="200" height="200"><defs><style type="text/css"></style></defs><path d="M311.54176 462.2336h413.0816c0.49152 0 1.10592 0 1.59744-0.1024a9.6256 9.6256 0 0 0 7.96672-11.12064L685.62944 151.4496A9.6256 9.6256 0 0 0 676.08576 143.36h-316.0064a9.6256 9.6256 0 0 0-9.5232 8.0896l-48.55808 299.56096c-0.12288 0.49152-0.12288 1.08544-0.12288 1.57696 0 5.3248 4.34176 9.66656 9.66656 9.66656z m113.17248 104.73472a9.6256 9.6256 0 0 0-9.54368-8.0896H99.16416a9.6256 9.6256 0 0 0-9.5232 8.0896L41.08288 866.54976C40.96 867.0208 40.96 867.6352 40.96 868.10624c0 5.3248 4.34176 9.66656 9.66656 9.66656h413.10208c0.49152 0 1.08544 0 1.57696-0.12288a9.6256 9.6256 0 0 0 7.9872-11.10016l-48.57856-299.58144z m567.97184 299.58144L944.128 566.96832a9.6256 9.6256 0 0 0-9.54368-8.0896h-316.0064a9.6256 9.6256 0 0 0-9.54368 8.0896l-48.5376 299.58144c-0.12288 0.47104-0.12288 1.08544-0.12288 1.55648 0 5.3248 4.34176 9.66656 9.64608 9.66656h413.12256c0.47104 0 1.08544 0 1.55648-0.12288a9.70752 9.70752 0 0 0 7.9872-11.10016z" p-id="51190"></path></svg>