<?xml version="1.0" standalone="no"?><!DOCTYPE svg PUBLIC "-//W3C//DTD SVG 1.1//EN" "http://www.w3.org/Graphics/SVG/1.1/DTD/svg11.dtd"><svg class="icon" width="200px" height="200.00px" viewBox="0 0 1024 1024" version="1.1" xmlns="http://www.w3.org/2000/svg"><path d="M512.341333 85.333333A213.12 213.12 0 0 1 721.066667 256h7.637333c81.152 0 149.333333 59.093333 172.842667 162.133333l34.432 255.786667C956.672 843.264 855.125333 938.666667 689.024 938.666667H334.592c-179.072 0-273.706667-85.162667-244.053333-274.773334l33.450666-248.192C143.530667 314.666667 213.589333 256 296.533333 256H302.933333a213.461333 213.461333 0 0 1 58.368-108.458667A212.693333 212.693333 0 0 1 512.384 85.333333z m216.32 256H296.490667c-41.685333 0-76.842667 29.44-88.277334 88.149334l-33.152 246.698666C154.197333 809.088 203.392 853.333333 334.592 853.333333h354.432c120.618667 0 179.157333-56.874667 161.024-178.090666l-32.341333-241.92C803.498667 371.626667 768.554667 341.333333 728.704 341.333333z m-216.490666-170.666666a127.488 127.488 0 0 0-120.874667 85.333333h241.450667c-17.536-49.706667-64.853333-85.333333-120.576-85.333333z" fill="#3E1189" /><path d="M384 426.666667a42.666667 42.666667 0 1 1 0 85.333333 42.666667 42.666667 0 0 1 0-85.333333z m256 0a42.666667 42.666667 0 1 1 0 85.333333 42.666667 42.666667 0 0 1 0-85.333333z" fill="#3E1189" opacity=".5" /></svg>