<?xml version="1.0" standalone="no"?><!DOCTYPE svg PUBLIC "-//W3C//DTD SVG 1.1//EN" "http://www.w3.org/Graphics/SVG/1.1/DTD/svg11.dtd"><svg class="icon" width="200px" height="200.00px" viewBox="0 0 1024 1024" version="1.1" xmlns="http://www.w3.org/2000/svg"><path fill="#333333" d="M892.6 677.6c-33.9 0-61.3-27.5-61.3-61.3V447.6c0-154.2-110.7-283.8-256.5-313.3 0.1-1.7 0.2-3.4 0.2-5.1 0-34.8-28.2-63-63-63s-63 28.2-63 63c0 1.7 0.1 3.3 0.2 4.9C303 163.4 192 293.2 192 447.6v168.3c0 34.1-27.6 61.7-61.7 61.7-35.2 0-63.9 28.8-63.9 63.9 0 35.2 28.8 63.9 63.9 63.9h762.2c35.2 0 63.9-28.8 63.9-63.9 0.1-35.2-28.7-63.9-63.8-63.9z m-188.5 0h-384s-12.1 0.1-29.4 0.1c32.7 0 29.4-101.6 29.4-101.6V448c0-105.6 86.4-192 192-192s192 86.4 192 192v128s-6.6 101.6 30.7 101.5c-14.8 0.3-30.7 0.1-30.7 0.1zM512 956.9c55.1 0 99.7-44.6 99.7-99.7H412.3c0 55 44.6 99.7 99.7 99.7z"  /></svg>