<svg class="icon" width="200px" height="200.00px" viewBox="0 0 1024 1024" version="1.1" xmlns="http://www.w3.org/2000/svg"><path fill="#e6e6e6" d="M512 0c271.48288 0 491.52 220.03712 491.52 491.52s-220.03712 491.52-491.52 491.52S20.48 763.00288 20.48 491.52 240.51712 0 512 0zM403.49696 317.8496a30.72 30.72 0 0 0-43.4176 0l-21.7088 21.7088a30.72 30.72 0 0 0 0 43.45856l108.58496 108.62592-108.62592 108.62592a30.72 30.72 0 0 0-2.53952 40.5504l2.53952 2.8672 21.7088 21.7088a30.72 30.72 0 0 0 40.5504 2.58048l2.90816-2.53952 108.62592-108.62592 108.62592 108.62592a30.72 30.72 0 0 0 40.5504 2.53952l2.8672-2.53952 21.7088-21.7088a30.72 30.72 0 0 0 0-43.45856l-108.58496-108.62592 108.62592-108.62592a30.72 30.72 0 0 0 2.53952-40.5504l-2.53952-2.8672-21.7088-21.7088a30.72 30.72 0 0 0-40.5504-2.58048l-2.90816 2.53952-108.62592 108.62592L403.49696 317.8496z"  /></svg>