<svg class="icon" width="200px" height="200.00px" viewBox="0 0 1024 1024" version="1.1" xmlns="http://www.w3.org/2000/svg"><path fill="#2c2c2c" d="M507.84 192A477.184 477.184 0 0 0 64 494.592a477.184 477.184 0 0 0 443.84 302.592 476.992 476.992 0 0 0 443.776-302.592A476.992 476.992 0 0 0 507.84 192z m0 504.32a201.792 201.792 0 0 1 0-403.456 201.792 201.792 0 0 1 0 403.456z m0-322.752a121.152 121.152 0 0 0-121.088 121.024 121.152 121.152 0 0 0 242.048 0 121.152 121.152 0 0 0-120.96-121.024z" /></svg>