<?xml version="1.0" standalone="no"?><!DOCTYPE svg PUBLIC "-//W3C//DTD SVG 1.1//EN" "http://www.w3.org/Graphics/SVG/1.1/DTD/svg11.dtd"><svg class="icon" width="200px" height="200.00px" viewBox="0 0 1024 1024" version="1.1" xmlns="http://www.w3.org/2000/svg"><path fill="#e6e6e6" d="M934.271789 89.688212C809.172888-35.27069 610.93463-39.87065 429.716223 141.147759 272.497605 298.186379 307.757295 262.986689 258.217731 312.466254 137.298793 433.245192 117.438968 614.123602 130.938849 734.802542l356.876864-356.496867c12.52089-12.49989 32.799712-12.49989 45.299601 0s12.49989 32.759712 0 45.259602L14.079876 942.06072c-18.760835 18.739835-18.760835 49.140568 0 67.880404 18.759835 18.738835 49.198568 18.738835 67.959403 0l132.198838-132.05984C318.837198 909.301008 557.995096 914.220965 707.893778 768.00225H511.515504l295.137406-98.279136c99.979121-99.858122 72.760361-72.358364 92.619186-93.719177H703.713815l263.077688-87.59923c90.879201-148.918691 68.619397-297.677384-32.519714-398.716495z" /></svg>