<?xml version="1.0" standalone="no"?><!DOCTYPE svg PUBLIC "-//W3C//DTD SVG 1.1//EN" "http://www.w3.org/Graphics/SVG/1.1/DTD/svg11.dtd"><svg class="icon" width="200px" height="200.00px" viewBox="0 0 1024 1024" version="1.1" xmlns="http://www.w3.org/2000/svg"><path fill="#333333" d="M576 704 576 576l128 0c38.4 0 64-25.6 64-64s-25.6-64-64-64L576 448 576 320c0-38.4-25.6-64-64-64S448 281.6 448 320l0 128L320 448C281.6 448 256 473.6 256 512s25.6 64 64 64l128 0 0 128c0 38.4 25.6 64 64 64S576 742.4 576 704z" /></svg>