<svg class="icon" width="200px" height="200.00px" viewBox="0 0 1024 1024" version="1.1" xmlns="http://www.w3.org/2000/svg"><path fill="#e6e6e6" d="M512 16C238 16 16 238.2 16 512c0 274 222 496 496 496s496-222 496-496C1008 238.2 786 16 512 16z m0 220c46.4 0 84 37.6 84 84s-37.6 84-84 84-84-37.6-84-84 37.6-84 84-84z m112 508c0 13.2-10.8 24-24 24h-176c-13.2 0-24-10.8-24-24v-48c0-13.2 10.8-24 24-24h24v-128h-24c-13.2 0-24-10.8-24-24v-48c0-13.2 10.8-24 24-24h128c13.2 0 24 10.8 24 24v200h24c13.2 0 24 10.8 24 24v48z"  /></svg>