<svg t="1629702353254" class="icon" viewBox="0 0 1024 1024" version="1.1" xmlns="http://www.w3.org/2000/svg" p-id="5516" xmlns:xlink="http://www.w3.org/1999/xlink" width="200" height="200"><defs><style type="text/css"></style></defs><path d="M277.2 277.2m-149.2 0a149.2 149.2 0 1 0 298.4 0 149.2 149.2 0 1 0-298.4 0Z" fill="#4686F2" opacity=".6" p-id="5517"></path><path d="M277.2 746.8m-149.2 0a149.2 149.2 0 1 0 298.4 0 149.2 149.2 0 1 0-298.4 0Z" fill="#4686F2" opacity=".8" p-id="5518"></path><path d="M746.8 277.2m-149.2 0a149.2 149.2 0 1 0 298.4 0 149.2 149.2 0 1 0-298.4 0Z" fill="#4686F2" opacity=".4" p-id="5519"></path><path d="M746.8 746.8m-149.2 0a149.2 149.2 0 1 0 298.4 0 149.2 149.2 0 1 0-298.4 0Z" fill="#4686F2" p-id="5520"></path></svg>