<?xml version="1.0" standalone="no"?><!DOCTYPE svg PUBLIC "-//W3C//DTD SVG 1.1//EN" "http://www.w3.org/Graphics/SVG/1.1/DTD/svg11.dtd"><svg t="1630087440915" class="icon" viewBox="0 0 1024 1024" version="1.1" xmlns="http://www.w3.org/2000/svg" p-id="4212" xmlns:xlink="http://www.w3.org/1999/xlink" width="200" height="200"><defs><style type="text/css"></style></defs><path d="M639.99904 554.875838a42.879678 42.879678 0 0 0-42.879678 42.879679V767.99424a42.879678 42.879678 0 0 1-42.239684 42.879678h-127.99904v-639.9952a87.679342 87.679342 0 0 0-58.239563-81.27939l-12.799904-3.839971h198.398512a42.879678 42.879678 0 0 1 42.879679 42.239683v127.99904a42.879678 42.879678 0 0 0 42.879678 42.879678 42.239683 42.239683 0 0 0 42.239683-42.879678V127.99904a127.99904 127.99904 0 0 0-127.99904-127.99904H85.123202A85.759357 85.759357 0 0 0 0.00384 85.759357v767.99424a87.039347 87.039347 0 0 0 58.239563 80.639395l255.99808 85.119362a72.959453 72.959453 0 0 0 26.239803 4.479966 86.399352 86.399352 0 0 0 85.759357-85.759357V895.99328h127.99904a127.99904 127.99904 0 0 0 127.99904-127.99904V597.755517a42.239683 42.239683 0 0 0-42.239683-42.879679z" p-id="4213"></path><path d="M1011.196256 396.797024l-170.878718-170.878718a42.239683 42.239683 0 0 0-60.159549 0A40.319698 40.319698 0 0 0 767.99808 255.99808v127.99904H597.119362a42.879678 42.879678 0 1 0 0 85.119362H767.99808v127.99904a42.239683 42.239683 0 0 0 42.239683 42.879678 42.879678 42.879678 0 0 0 30.079775-12.159909l170.878718-170.238723a42.239683 42.239683 0 0 0 0-60.159549z" p-id="4214"></path></svg>