<svg t="1629191969575" class="icon" viewBox="0 0 1024 1024" version="1.1" xmlns="http://www.w3.org/2000/svg" p-id="12887" xmlns:xlink="http://www.w3.org/1999/xlink" width="200" height="200"><defs><style type="text/css"></style></defs><path d="M760.6784 511.8976a36.7616 36.7616 0 0 1-11.3664 26.88l-326.0928 326.144c-7.5776 7.5776-16.5888 11.4176-26.9824 11.4176s-19.4048-3.7888-26.9824-11.4176a36.864 36.864 0 0 1-11.3664-26.9824v-172.5952H89.344a36.864 36.864 0 0 1-26.9824-11.4176 36.9152 36.9152 0 0 1-11.3664-26.9824V396.7488c0-10.3936 3.84-19.3536 11.3664-26.9312A36.864 36.864 0 0 1 89.344 358.4h268.5952V185.7536c0-10.3936 3.7888-19.456 11.3664-26.9312a36.7616 36.7616 0 0 1 26.9824-11.4176c10.3424 0 19.3536 3.7376 26.9824 11.4176l325.9904 325.9904c7.6288 7.68 11.3664 16.64 11.4176 27.0848z m211.0464-211.0464v421.9392c0 47.616-16.8448 88.2176-50.6368 122.0096-33.7408 33.792-74.4448 50.688-122.0096 50.688H607.232a18.944 18.944 0 0 1-13.4656-5.6832 18.432 18.432 0 0 1-5.632-13.5168c0-1.5872-0.256-5.5808-0.6144-11.9808a148.224 148.224 0 0 1-0.3584-15.9232c0.256-4.1984 0.8192-8.9088 1.8432-13.9776a19.3536 19.3536 0 0 1 5.9904-11.776 17.8688 17.8688 0 0 1 12.1856-3.8912h191.8464c26.4192 0 48.9472-9.4208 67.7376-28.1088 18.7904-18.7904 28.16-41.4208 28.16-67.7888V300.8512c0-26.4192-9.3696-48.9472-28.16-67.7376a92.5184 92.5184 0 0 0-67.7376-28.16h-186.9824l-6.912-0.6144-6.8608-1.792-4.8128-3.328-4.2496-5.3248-1.1264-8.0896c0-1.5872-0.256-5.5808-0.6144-12.032a146.8416 146.8416 0 0 1-0.3584-15.872c0.256-4.1984 0.8192-8.9088 1.792-14.08a19.8144 19.8144 0 0 1 6.0416-11.6736 17.6128 17.6128 0 0 1 12.1856-3.9424h191.8464c47.5648 0 88.2688 16.896 122.0096 50.7392 33.8432 33.6384 50.7392 74.3936 50.7392 121.9072z m0 0" p-id="12888" fill="#dbdbdb" >
</path>
</svg>