<svg class="icon" width="200px" height="200.00px" viewBox="0 0 1024 1024" version="1.1" xmlns="http://www.w3.org/2000/svg"><path fill="#e6e6e6" d="M448.38 892.285H229.405c-76.147 0-138.071-61.926-138.071-138.073V201.925c0-76.148 61.924-138.074 138.071-138.074h495.12c76.146 0 138.072 61.926 138.072 138.074v276.143h-69.04V201.925c0-38.04-30.927-69.036-69.033-69.036H229.405c-38.038 0-69.035 30.997-69.035 69.036v552.287c0 38.107 30.997 69.037 69.035 69.037H448.38v69.036z"  /><path fill="#e6e6e6" d="M229.405 270.961h495.119v69.036H229.405V270.96z m703.26 640.377l-98.097-98.1c17.534-26.993 28.03-59.094 28.03-93.543 0-94.926-77.665-172.59-172.591-172.59s-172.59 77.665-172.59 172.59c0 94.924 77.665 172.59 172.59 172.59 35.622 0 68.759-10.91 96.375-29.617l97.478 97.48 48.805-48.81z m-242.66-88.09c-57.09 0-103.555-46.46-103.555-103.553 0-57.093 46.464-103.554 103.556-103.554s103.551 46.461 103.551 103.554-46.46 103.554-103.551 103.554z m-460.6-414.215h495.119v69.036H229.405v-69.036z m0 138.073H448.38v69.035H229.405v-69.035z"  /></svg>