<svg class="icon" width="200px" height="200.00px" viewBox="0 0 1024 1024" version="1.1" xmlns="http://www.w3.org/2000/svg"><path d="M0 0h1024v1024H0z" fill="#F8F8F8" fill-opacity="0" /><path d="M512 51.2a460.8 460.8 0 1 1 0 921.6 460.8 460.8 0 0 1 0-921.6zM438.272 281.0368l9.8304 246.3744c1.3824 34.304 29.5936 61.3888 63.8976 61.3888s62.464-27.136 63.744-61.44l9.216-246.272A73.5232 73.5232 0 0 0 511.488 204.8a73.3184 73.3184 0 0 0-73.216 76.2368zM435.2 741.888v0.512A76.8 76.8 0 0 0 512 819.2a76.288 76.288 0 0 0 76.288-76.8v-0.512A76.8 76.8 0 0 0 511.488 665.6a76.288 76.288 0 0 0-76.288 76.288z" fill="#FF4B33" /></svg>